{"title":"Predator Ultimate Hunter Edition 1987 720p BRRip x264-Jucified [","uid":7374593,"size":732807366,"categoryP":"video","categoryS":"hd___movies","magnet":"?xt=urn:btih:8e60005c3481b7c65c801d49c12b5a2d81914691&amp;dn=Predator+Ultimate+Hunter+Edition+1987+720p+BRRip+x264-Jucified+%5B&amp;tr=udp%3A%2F%2Ftracker.openbittorrent.com%3A80&amp;tr=udp%3A%2F%2Fopen.demonii.com%3A1337&amp;tr=udp%3A%2F%2Ftracker.coppersurfer.tk%3A6969&amp;tr=udp%3A%2F%2Fexodus.desync.com%3A6969","seeders":1,"leechers":0,"uploader":"johnpc666","files":-1,"time":1340322573,"description":"Source Used\n\nPredator.Ultimate.Hunter.Edition.1987.720p.BluRay.x264-Rx (4.88GB)\n\n(Thanks)\n\nGeneral\n\nComplete name                    : Predator Ultimate Hunter Edition 1987 720p BRRip x264-Jucified (700MB).mp4\nFormat                           : MPEG-4\nFormat profile                   : Base Media\nCodec ID                         : isom\nFile size                        : 699 MiB\nDuration                         : 1h 46mn\nOverall bit rate                 : 917 Kbps\n\nVideo\n\nFormat                           : AVC\nFormat/Info                      : Advanced Video Codec\nFormat profile                   : &lt;a class=&quot;__cf_email__&quot; href=&quot;/cdn-cgi/l/email-protection&quot; data-cfemail=&quot;9cd4f5fbf4dcd0a8b2ad&quot;&gt;[email&amp;#160;protected]&lt;/a&gt;&lt;script cf-hash='f9e31' type=&quot;text/javascript&quot;&gt;\n/* &lt;![CDATA[ */!function(){try{var t=&quot;currentScript&quot;in document?document.currentScript:function(){for(var t=document.getElementsByTagName(&quot;script&quot;),e=t.length;e--;)if(t[e].getAttribute(&quot;cf-hash&quot;))return t[e]}();if(t&amp;&amp;t.previousSibling){var e,r,n,i,c=t.previousSibling,a=c.getAttribute(&quot;data-cfemail&quot;);if(a){for(e=&quot;&quot;,r=parseInt(a.substr(0,2),16),n=2;a.length-n;n+=2)i=parseInt(a.substr(n,2),16)^r,e+=String.fromCharCode(i);e=document.createTextNode(e),c.parentNode.replaceChild(e,c)}}}catch(u){}}();/* ]]&gt; */&lt;/script&gt;\nFormat settings, CABAC           : Yes\nFormat settings, ReFrames        : 5 frames\nCodec ID                         : avc1\nCodec ID/Info                    : Advanced Video Coding\nDuration                         : 1h 46mn\nBit rate mode                    : Variable\nBit rate                         : 790 Kbps\nMaximum bit rate                 : 2 704 Kbps\nWidth                            : 1 280 pixels\nHeight                           : 688 pixels\nDisplay aspect ratio             : 1.860\nFrame rate mode                  : Constant\nFrame rate                       : 23.976 fps\nResolution                       : 24 bits\nColorimetry                      : 4:2:0\nScan type                        : Progressive\nBits/(Pixel*Frame)               : 0.037\nStream size                      : 601 MiB (86%)\n\nAudio\n\nFormat                           : AAC\nFormat/Info                      : Advanced Audio Codec\nFormat version                   : Version 4\nFormat profile                   : LC\nFormat settings, SBR             : No\nCodec ID                         : 40\nDuration                         : 1h 46mn\nBit rate mode                    : Variable\nBit rate                         : 125 Kbps\nMaximum bit rate                 : 135 Kbps\nChannel(s)                       : 2 channels\nChannel positions                : L R\nSampling rate                    : 48.0 KHz\nResolution                       : 16 bits\nStream size                      : 95.3 MiB (14%)\n\n-----------------------------------------------------------------------------------\n\nPlease if you like my uploads please take a second and click the + icon above. I have people purposely hitting the minus before anyone downloads from me. :(\n\nPlease seed and enjoy :)\n\n-=[ JohnPc666 ]=-","torrent":{"xt":"urn:btih:8e60005c3481b7c65c801d49c12b5a2d81914691","amp;dn":"Predator+Ultimate+Hunter+Edition+1987+720p+BRRip+x264-Jucified+%5B","amp;tr":["udp%3A%2F%2Ftracker.openbittorrent.com%3A80","udp%3A%2F%2Fopen.demonii.com%3A1337","udp%3A%2F%2Ftracker.coppersurfer.tk%3A6969","udp%3A%2F%2Fexodus.desync.com%3A6969"],"infoHash":"8e60005c3481b7c65c801d49c12b5a2d81914691","infoHashBuffer":{"type":"Buffer","data":[142,96,0,92,52,129,183,198,92,128,29,73,193,43,90,45,129,145,70,145]},"announce":[],"urlList":[]}}